<mxfile host="app.diagrams.net" agent="Mozilla/5.0 (Windows NT 10.0; Win64; x64) AppleWebKit/537.36 (KHTML, like Gecko) Chrome/136.0.0.0 Safari/537.36" version="27.0.6">
  <diagram name="Página-1" id="FBa3Rkdh2leeWmmnC8Ue">
    <mxGraphModel grid="1" page="1" gridSize="10" guides="1" tooltips="1" connect="1" arrows="1" fold="1" pageScale="1" pageWidth="827" pageHeight="1169" math="0" shadow="0">
      <root>
        <mxCell id="0" />
        <mxCell id="1" parent="0" />
        <mxCell id="wSawmQyh7sKgnAYarVTw-1" value="Controlador de Solicitação" style="shape=umlLifeline;perimeter=lifelinePerimeter;whiteSpace=wrap;container=1;dropTarget=0;collapsible=0;recursiveResize=0;outlineConnect=0;portConstraint=eastwest;newEdgeStyle={&quot;edgeStyle&quot;:&quot;elbowEdgeStyle&quot;,&quot;elbow&quot;:&quot;vertical&quot;,&quot;curved&quot;:0,&quot;rounded&quot;:0};size=65;" vertex="1" parent="1">
          <mxGeometry x="20" y="20" width="207" height="2681" as="geometry" />
        </mxCell>
        <mxCell id="wSawmQyh7sKgnAYarVTw-2" value="Controlador de Aprovação" style="shape=umlLifeline;perimeter=lifelinePerimeter;whiteSpace=wrap;container=1;dropTarget=0;collapsible=0;recursiveResize=0;outlineConnect=0;portConstraint=eastwest;newEdgeStyle={&quot;edgeStyle&quot;:&quot;elbowEdgeStyle&quot;,&quot;elbow&quot;:&quot;vertical&quot;,&quot;curved&quot;:0,&quot;rounded&quot;:0};size=65;" vertex="1" parent="1">
          <mxGeometry x="277" y="20" width="207" height="2681" as="geometry" />
        </mxCell>
        <mxCell id="wSawmQyh7sKgnAYarVTw-3" value="Controlador de Viagem" style="shape=umlLifeline;perimeter=lifelinePerimeter;whiteSpace=wrap;container=1;dropTarget=0;collapsible=0;recursiveResize=0;outlineConnect=0;portConstraint=eastwest;newEdgeStyle={&quot;edgeStyle&quot;:&quot;elbowEdgeStyle&quot;,&quot;elbow&quot;:&quot;vertical&quot;,&quot;curved&quot;:0,&quot;rounded&quot;:0};size=65;" vertex="1" parent="1">
          <mxGeometry x="534" y="20" width="185" height="2681" as="geometry" />
        </mxCell>
        <mxCell id="wSawmQyh7sKgnAYarVTw-4" value="Sistema de Notificação" style="shape=umlLifeline;perimeter=lifelinePerimeter;whiteSpace=wrap;container=1;dropTarget=0;collapsible=0;recursiveResize=0;outlineConnect=0;portConstraint=eastwest;newEdgeStyle={&quot;edgeStyle&quot;:&quot;elbowEdgeStyle&quot;,&quot;elbow&quot;:&quot;vertical&quot;,&quot;curved&quot;:0,&quot;rounded&quot;:0};size=65;" vertex="1" parent="1">
          <mxGeometry x="883" y="20" width="182" height="2681" as="geometry" />
        </mxCell>
        <mxCell id="wSawmQyh7sKgnAYarVTw-5" value="Serviço de Email" style="shape=umlLifeline;perimeter=lifelinePerimeter;whiteSpace=wrap;container=1;dropTarget=0;collapsible=0;recursiveResize=0;outlineConnect=0;portConstraint=eastwest;newEdgeStyle={&quot;edgeStyle&quot;:&quot;elbowEdgeStyle&quot;,&quot;elbow&quot;:&quot;vertical&quot;,&quot;curved&quot;:0,&quot;rounded&quot;:0};size=65;" vertex="1" parent="1">
          <mxGeometry x="1434" y="20" width="150" height="2681" as="geometry" />
        </mxCell>
        <mxCell id="wSawmQyh7sKgnAYarVTw-6" value="Banco de Dados de Notificações" style="shape=umlLifeline;perimeter=lifelinePerimeter;whiteSpace=wrap;container=1;dropTarget=0;collapsible=0;recursiveResize=0;outlineConnect=0;portConstraint=eastwest;newEdgeStyle={&quot;edgeStyle&quot;:&quot;elbowEdgeStyle&quot;,&quot;elbow&quot;:&quot;vertical&quot;,&quot;curved&quot;:0,&quot;rounded&quot;:0};size=65;" vertex="1" parent="1">
          <mxGeometry x="1634" y="20" width="248" height="2681" as="geometry" />
        </mxCell>
        <mxCell id="wSawmQyh7sKgnAYarVTw-7" value="Repositório de Usuários" style="shape=umlLifeline;perimeter=lifelinePerimeter;whiteSpace=wrap;container=1;dropTarget=0;collapsible=0;recursiveResize=0;outlineConnect=0;portConstraint=eastwest;newEdgeStyle={&quot;edgeStyle&quot;:&quot;elbowEdgeStyle&quot;,&quot;elbow&quot;:&quot;vertical&quot;,&quot;curved&quot;:0,&quot;rounded&quot;:0};size=65;" vertex="1" parent="1">
          <mxGeometry x="1932" y="20" width="188" height="2681" as="geometry" />
        </mxCell>
        <mxCell id="wSawmQyh7sKgnAYarVTw-8" value="Usuario" style="shape=umlLifeline;perimeter=lifelinePerimeter;whiteSpace=wrap;container=1;dropTarget=0;collapsible=0;recursiveResize=0;outlineConnect=0;portConstraint=eastwest;newEdgeStyle={&quot;edgeStyle&quot;:&quot;elbowEdgeStyle&quot;,&quot;elbow&quot;:&quot;vertical&quot;,&quot;curved&quot;:0,&quot;rounded&quot;:0};participant=umlActor;verticalAlign=bottom;labelPosition=center;verticalLabelPosition=top;align=center;size=65;" vertex="1" parent="1">
          <mxGeometry x="2178" y="20" width="35" height="2681" as="geometry" />
        </mxCell>
        <mxCell id="wSawmQyh7sKgnAYarVTw-9" value="loop" style="shape=umlFrame;dashed=1;pointerEvents=0;dropTarget=0;strokeColor=#B3B3B3;height=20;width=40" vertex="1" parent="1">
          <mxGeometry x="963" y="306" width="806" height="263" as="geometry" />
        </mxCell>
        <mxCell id="wSawmQyh7sKgnAYarVTw-10" value="[Para cada gestor]" style="text;strokeColor=none;fillColor=none;align=center;verticalAlign=middle;whiteSpace=wrap;" vertex="1" parent="wSawmQyh7sKgnAYarVTw-9">
          <mxGeometry x="40" width="766" height="20" as="geometry" />
        </mxCell>
        <mxCell id="wSawmQyh7sKgnAYarVTw-11" value="1. notificarGestor(novaSolicitacao)" style="verticalAlign=bottom;edgeStyle=elbowEdgeStyle;elbow=vertical;curved=0;rounded=0;endArrow=block;" edge="1" parent="1" source="wSawmQyh7sKgnAYarVTw-1" target="wSawmQyh7sKgnAYarVTw-4">
          <mxGeometry relative="1" as="geometry">
            <Array as="points">
              <mxPoint x="557" y="178" />
            </Array>
          </mxGeometry>
        </mxCell>
        <mxCell id="wSawmQyh7sKgnAYarVTw-12" value="2. buscarGestores()" style="verticalAlign=bottom;edgeStyle=elbowEdgeStyle;elbow=vertical;curved=0;rounded=0;endArrow=block;" edge="1" parent="1" source="wSawmQyh7sKgnAYarVTw-4" target="wSawmQyh7sKgnAYarVTw-7">
          <mxGeometry relative="1" as="geometry">
            <Array as="points">
              <mxPoint x="1508" y="232" />
            </Array>
          </mxGeometry>
        </mxCell>
        <mxCell id="wSawmQyh7sKgnAYarVTw-13" value="3. listaGestores" style="verticalAlign=bottom;edgeStyle=elbowEdgeStyle;elbow=vertical;curved=0;rounded=0;dashed=1;dashPattern=2 3;endArrow=block;" edge="1" parent="1" source="wSawmQyh7sKgnAYarVTw-7" target="wSawmQyh7sKgnAYarVTw-4">
          <mxGeometry relative="1" as="geometry">
            <Array as="points">
              <mxPoint x="1511" y="286" />
            </Array>
          </mxGeometry>
        </mxCell>
        <mxCell id="wSawmQyh7sKgnAYarVTw-14" value="4. enviarEmail(emailGestor, &quot;Nova Solicitação&quot;, detalhes)" style="verticalAlign=bottom;edgeStyle=elbowEdgeStyle;elbow=vertical;curved=0;rounded=0;endArrow=block;" edge="1" parent="1" source="wSawmQyh7sKgnAYarVTw-4" target="wSawmQyh7sKgnAYarVTw-5">
          <mxGeometry relative="1" as="geometry">
            <Array as="points">
              <mxPoint x="1250" y="387" />
            </Array>
          </mxGeometry>
        </mxCell>
        <mxCell id="wSawmQyh7sKgnAYarVTw-15" value="5. emailEnviado" style="verticalAlign=bottom;edgeStyle=elbowEdgeStyle;elbow=vertical;curved=0;rounded=0;dashed=1;dashPattern=2 3;endArrow=block;" edge="1" parent="1" source="wSawmQyh7sKgnAYarVTw-5" target="wSawmQyh7sKgnAYarVTw-4">
          <mxGeometry relative="1" as="geometry">
            <Array as="points">
              <mxPoint x="1253" y="441" />
            </Array>
          </mxGeometry>
        </mxCell>
        <mxCell id="wSawmQyh7sKgnAYarVTw-16" value="6. registrarNotificacao(idGestor, &quot;Nova Solicitação&quot;, detalhes)" style="verticalAlign=bottom;edgeStyle=elbowEdgeStyle;elbow=vertical;curved=0;rounded=0;endArrow=block;" edge="1" parent="1" source="wSawmQyh7sKgnAYarVTw-4" target="wSawmQyh7sKgnAYarVTw-6">
          <mxGeometry relative="1" as="geometry">
            <Array as="points">
              <mxPoint x="1374" y="495" />
            </Array>
          </mxGeometry>
        </mxCell>
        <mxCell id="wSawmQyh7sKgnAYarVTw-17" value="7. notificacaoRegistrada" style="verticalAlign=bottom;edgeStyle=elbowEdgeStyle;elbow=vertical;curved=0;rounded=0;dashed=1;dashPattern=2 3;endArrow=block;" edge="1" parent="1" source="wSawmQyh7sKgnAYarVTw-6" target="wSawmQyh7sKgnAYarVTw-4">
          <mxGeometry relative="1" as="geometry">
            <Array as="points">
              <mxPoint x="1377" y="549" />
            </Array>
          </mxGeometry>
        </mxCell>
        <mxCell id="wSawmQyh7sKgnAYarVTw-18" value="8. notificacoesEnviadas" style="verticalAlign=bottom;edgeStyle=elbowEdgeStyle;elbow=vertical;curved=0;rounded=0;dashed=1;dashPattern=2 3;endArrow=block;" edge="1" parent="1" source="wSawmQyh7sKgnAYarVTw-4" target="wSawmQyh7sKgnAYarVTw-1">
          <mxGeometry relative="1" as="geometry">
            <Array as="points">
              <mxPoint x="560" y="613" />
            </Array>
          </mxGeometry>
        </mxCell>
        <mxCell id="wSawmQyh7sKgnAYarVTw-19" value="1. notificarAprovacao(idSolicitacao, idMotorista)" style="verticalAlign=bottom;edgeStyle=elbowEdgeStyle;elbow=vertical;curved=0;rounded=0;endArrow=block;" edge="1" parent="1" source="wSawmQyh7sKgnAYarVTw-2" target="wSawmQyh7sKgnAYarVTw-4">
          <mxGeometry relative="1" as="geometry">
            <Array as="points">
              <mxPoint x="686" y="716" />
            </Array>
          </mxGeometry>
        </mxCell>
        <mxCell id="wSawmQyh7sKgnAYarVTw-20" value="2. buscarSolicitante(idSolicitacao)" style="verticalAlign=bottom;edgeStyle=elbowEdgeStyle;elbow=vertical;curved=0;rounded=0;endArrow=block;" edge="1" parent="1" source="wSawmQyh7sKgnAYarVTw-4" target="wSawmQyh7sKgnAYarVTw-7">
          <mxGeometry relative="1" as="geometry">
            <Array as="points">
              <mxPoint x="1508" y="770" />
            </Array>
          </mxGeometry>
        </mxCell>
        <mxCell id="wSawmQyh7sKgnAYarVTw-21" value="3. dadosSolicitante" style="verticalAlign=bottom;edgeStyle=elbowEdgeStyle;elbow=vertical;curved=0;rounded=0;dashed=1;dashPattern=2 3;endArrow=block;" edge="1" parent="1" source="wSawmQyh7sKgnAYarVTw-7" target="wSawmQyh7sKgnAYarVTw-4">
          <mxGeometry relative="1" as="geometry">
            <Array as="points">
              <mxPoint x="1511" y="824" />
            </Array>
          </mxGeometry>
        </mxCell>
        <mxCell id="wSawmQyh7sKgnAYarVTw-22" value="4. buscarMotorista(idMotorista)" style="verticalAlign=bottom;edgeStyle=elbowEdgeStyle;elbow=vertical;curved=0;rounded=0;endArrow=block;" edge="1" parent="1" source="wSawmQyh7sKgnAYarVTw-4" target="wSawmQyh7sKgnAYarVTw-7">
          <mxGeometry relative="1" as="geometry">
            <Array as="points">
              <mxPoint x="1508" y="878" />
            </Array>
          </mxGeometry>
        </mxCell>
        <mxCell id="wSawmQyh7sKgnAYarVTw-23" value="5. dadosMotorista" style="verticalAlign=bottom;edgeStyle=elbowEdgeStyle;elbow=vertical;curved=0;rounded=0;dashed=1;dashPattern=2 3;endArrow=block;" edge="1" parent="1" source="wSawmQyh7sKgnAYarVTw-7" target="wSawmQyh7sKgnAYarVTw-4">
          <mxGeometry relative="1" as="geometry">
            <Array as="points">
              <mxPoint x="1511" y="932" />
            </Array>
          </mxGeometry>
        </mxCell>
        <mxCell id="wSawmQyh7sKgnAYarVTw-24" value="6. enviarEmail(emailSolicitante, &quot;Solicitação Aprovada&quot;, detalhes)" style="verticalAlign=bottom;edgeStyle=elbowEdgeStyle;elbow=vertical;curved=0;rounded=0;endArrow=block;" edge="1" parent="1" source="wSawmQyh7sKgnAYarVTw-4" target="wSawmQyh7sKgnAYarVTw-5">
          <mxGeometry relative="1" as="geometry">
            <Array as="points">
              <mxPoint x="1250" y="986" />
            </Array>
          </mxGeometry>
        </mxCell>
        <mxCell id="wSawmQyh7sKgnAYarVTw-25" value="7. emailEnviado" style="verticalAlign=bottom;edgeStyle=elbowEdgeStyle;elbow=vertical;curved=0;rounded=0;dashed=1;dashPattern=2 3;endArrow=block;" edge="1" parent="1" source="wSawmQyh7sKgnAYarVTw-5" target="wSawmQyh7sKgnAYarVTw-4">
          <mxGeometry relative="1" as="geometry">
            <Array as="points">
              <mxPoint x="1253" y="1040" />
            </Array>
          </mxGeometry>
        </mxCell>
        <mxCell id="wSawmQyh7sKgnAYarVTw-26" value="8. enviarEmail(emailMotorista, &quot;Nova Viagem Atribuída&quot;, detalhes)" style="verticalAlign=bottom;edgeStyle=elbowEdgeStyle;elbow=vertical;curved=0;rounded=0;endArrow=block;" edge="1" parent="1" source="wSawmQyh7sKgnAYarVTw-4" target="wSawmQyh7sKgnAYarVTw-5">
          <mxGeometry relative="1" as="geometry">
            <Array as="points">
              <mxPoint x="1250" y="1094" />
            </Array>
          </mxGeometry>
        </mxCell>
        <mxCell id="wSawmQyh7sKgnAYarVTw-27" value="9. emailEnviado" style="verticalAlign=bottom;edgeStyle=elbowEdgeStyle;elbow=vertical;curved=0;rounded=0;dashed=1;dashPattern=2 3;endArrow=block;" edge="1" parent="1" source="wSawmQyh7sKgnAYarVTw-5" target="wSawmQyh7sKgnAYarVTw-4">
          <mxGeometry relative="1" as="geometry">
            <Array as="points">
              <mxPoint x="1253" y="1148" />
            </Array>
          </mxGeometry>
        </mxCell>
        <mxCell id="wSawmQyh7sKgnAYarVTw-28" value="10. registrarNotificacao(idSolicitante, &quot;Solicitação Aprovada&quot;, detalhes)" style="verticalAlign=bottom;edgeStyle=elbowEdgeStyle;elbow=vertical;curved=0;rounded=0;endArrow=block;" edge="1" parent="1" source="wSawmQyh7sKgnAYarVTw-4" target="wSawmQyh7sKgnAYarVTw-6">
          <mxGeometry relative="1" as="geometry">
            <Array as="points">
              <mxPoint x="1374" y="1202" />
            </Array>
          </mxGeometry>
        </mxCell>
        <mxCell id="wSawmQyh7sKgnAYarVTw-29" value="11. notificacaoRegistrada" style="verticalAlign=bottom;edgeStyle=elbowEdgeStyle;elbow=vertical;curved=0;rounded=0;dashed=1;dashPattern=2 3;endArrow=block;" edge="1" parent="1" source="wSawmQyh7sKgnAYarVTw-6" target="wSawmQyh7sKgnAYarVTw-4">
          <mxGeometry relative="1" as="geometry">
            <Array as="points">
              <mxPoint x="1377" y="1256" />
            </Array>
          </mxGeometry>
        </mxCell>
        <mxCell id="wSawmQyh7sKgnAYarVTw-30" value="12. registrarNotificacao(idMotorista, &quot;Nova Viagem Atribuída&quot;, detalhes)" style="verticalAlign=bottom;edgeStyle=elbowEdgeStyle;elbow=vertical;curved=0;rounded=0;endArrow=block;" edge="1" parent="1" source="wSawmQyh7sKgnAYarVTw-4" target="wSawmQyh7sKgnAYarVTw-6">
          <mxGeometry relative="1" as="geometry">
            <Array as="points">
              <mxPoint x="1374" y="1310" />
            </Array>
          </mxGeometry>
        </mxCell>
        <mxCell id="wSawmQyh7sKgnAYarVTw-31" value="13. notificacaoRegistrada" style="verticalAlign=bottom;edgeStyle=elbowEdgeStyle;elbow=vertical;curved=0;rounded=0;dashed=1;dashPattern=2 3;endArrow=block;" edge="1" parent="1" source="wSawmQyh7sKgnAYarVTw-6" target="wSawmQyh7sKgnAYarVTw-4">
          <mxGeometry relative="1" as="geometry">
            <Array as="points">
              <mxPoint x="1377" y="1364" />
            </Array>
          </mxGeometry>
        </mxCell>
        <mxCell id="wSawmQyh7sKgnAYarVTw-32" value="14. notificacoesEnviadas" style="verticalAlign=bottom;edgeStyle=elbowEdgeStyle;elbow=vertical;curved=0;rounded=0;dashed=1;dashPattern=2 3;endArrow=block;" edge="1" parent="1" source="wSawmQyh7sKgnAYarVTw-4" target="wSawmQyh7sKgnAYarVTw-2">
          <mxGeometry relative="1" as="geometry">
            <Array as="points">
              <mxPoint x="689" y="1418" />
            </Array>
          </mxGeometry>
        </mxCell>
        <mxCell id="wSawmQyh7sKgnAYarVTw-33" value="1. notificarConclusaoViagem(idViagem)" style="verticalAlign=bottom;edgeStyle=elbowEdgeStyle;elbow=vertical;curved=0;rounded=0;endArrow=block;" edge="1" parent="1" source="wSawmQyh7sKgnAYarVTw-3" target="wSawmQyh7sKgnAYarVTw-4">
          <mxGeometry relative="1" as="geometry">
            <Array as="points">
              <mxPoint x="809" y="1521" />
            </Array>
          </mxGeometry>
        </mxCell>
        <mxCell id="wSawmQyh7sKgnAYarVTw-34" value="2. buscarEnvolvidosViagem(idViagem)" style="verticalAlign=bottom;edgeStyle=elbowEdgeStyle;elbow=vertical;curved=0;rounded=0;endArrow=block;" edge="1" parent="1" source="wSawmQyh7sKgnAYarVTw-4" target="wSawmQyh7sKgnAYarVTw-7">
          <mxGeometry relative="1" as="geometry">
            <Array as="points">
              <mxPoint x="1508" y="1575" />
            </Array>
          </mxGeometry>
        </mxCell>
        <mxCell id="wSawmQyh7sKgnAYarVTw-35" value="3. dadosEnvolvidos (solicitante, gestor)" style="verticalAlign=bottom;edgeStyle=elbowEdgeStyle;elbow=vertical;curved=0;rounded=0;dashed=1;dashPattern=2 3;endArrow=block;" edge="1" parent="1" source="wSawmQyh7sKgnAYarVTw-7" target="wSawmQyh7sKgnAYarVTw-4">
          <mxGeometry relative="1" as="geometry">
            <Array as="points">
              <mxPoint x="1511" y="1629" />
            </Array>
          </mxGeometry>
        </mxCell>
        <mxCell id="wSawmQyh7sKgnAYarVTw-36" value="4. enviarEmail(emailSolicitante, &quot;Viagem Concluída&quot;, detalhes)" style="verticalAlign=bottom;edgeStyle=elbowEdgeStyle;elbow=vertical;curved=0;rounded=0;endArrow=block;" edge="1" parent="1" source="wSawmQyh7sKgnAYarVTw-4" target="wSawmQyh7sKgnAYarVTw-5">
          <mxGeometry relative="1" as="geometry">
            <Array as="points">
              <mxPoint x="1250" y="1683" />
            </Array>
          </mxGeometry>
        </mxCell>
        <mxCell id="wSawmQyh7sKgnAYarVTw-37" value="5. emailEnviado" style="verticalAlign=bottom;edgeStyle=elbowEdgeStyle;elbow=vertical;curved=0;rounded=0;dashed=1;dashPattern=2 3;endArrow=block;" edge="1" parent="1" source="wSawmQyh7sKgnAYarVTw-5" target="wSawmQyh7sKgnAYarVTw-4">
          <mxGeometry relative="1" as="geometry">
            <Array as="points">
              <mxPoint x="1253" y="1737" />
            </Array>
          </mxGeometry>
        </mxCell>
        <mxCell id="wSawmQyh7sKgnAYarVTw-38" value="6. enviarEmail(emailGestor, &quot;Viagem Concluída&quot;, detalhes)" style="verticalAlign=bottom;edgeStyle=elbowEdgeStyle;elbow=vertical;curved=0;rounded=0;endArrow=block;" edge="1" parent="1" source="wSawmQyh7sKgnAYarVTw-4" target="wSawmQyh7sKgnAYarVTw-5">
          <mxGeometry relative="1" as="geometry">
            <Array as="points">
              <mxPoint x="1250" y="1791" />
            </Array>
          </mxGeometry>
        </mxCell>
        <mxCell id="wSawmQyh7sKgnAYarVTw-39" value="7. emailEnviado" style="verticalAlign=bottom;edgeStyle=elbowEdgeStyle;elbow=vertical;curved=0;rounded=0;dashed=1;dashPattern=2 3;endArrow=block;" edge="1" parent="1" source="wSawmQyh7sKgnAYarVTw-5" target="wSawmQyh7sKgnAYarVTw-4">
          <mxGeometry relative="1" as="geometry">
            <Array as="points">
              <mxPoint x="1253" y="1845" />
            </Array>
          </mxGeometry>
        </mxCell>
        <mxCell id="wSawmQyh7sKgnAYarVTw-40" value="8. registrarNotificacao(idSolicitante, &quot;Viagem Concluída&quot;, detalhes)" style="verticalAlign=bottom;edgeStyle=elbowEdgeStyle;elbow=vertical;curved=0;rounded=0;endArrow=block;" edge="1" parent="1" source="wSawmQyh7sKgnAYarVTw-4" target="wSawmQyh7sKgnAYarVTw-6">
          <mxGeometry relative="1" as="geometry">
            <Array as="points">
              <mxPoint x="1374" y="1899" />
            </Array>
          </mxGeometry>
        </mxCell>
        <mxCell id="wSawmQyh7sKgnAYarVTw-41" value="9. notificacaoRegistrada" style="verticalAlign=bottom;edgeStyle=elbowEdgeStyle;elbow=vertical;curved=0;rounded=0;dashed=1;dashPattern=2 3;endArrow=block;" edge="1" parent="1" source="wSawmQyh7sKgnAYarVTw-6" target="wSawmQyh7sKgnAYarVTw-4">
          <mxGeometry relative="1" as="geometry">
            <Array as="points">
              <mxPoint x="1377" y="1953" />
            </Array>
          </mxGeometry>
        </mxCell>
        <mxCell id="wSawmQyh7sKgnAYarVTw-42" value="10. registrarNotificacao(idGestor, &quot;Viagem Concluída&quot;, detalhes)" style="verticalAlign=bottom;edgeStyle=elbowEdgeStyle;elbow=vertical;curved=0;rounded=0;endArrow=block;" edge="1" parent="1" source="wSawmQyh7sKgnAYarVTw-4" target="wSawmQyh7sKgnAYarVTw-6">
          <mxGeometry relative="1" as="geometry">
            <Array as="points">
              <mxPoint x="1374" y="2007" />
            </Array>
          </mxGeometry>
        </mxCell>
        <mxCell id="wSawmQyh7sKgnAYarVTw-43" value="11. notificacaoRegistrada" style="verticalAlign=bottom;edgeStyle=elbowEdgeStyle;elbow=vertical;curved=0;rounded=0;dashed=1;dashPattern=2 3;endArrow=block;" edge="1" parent="1" source="wSawmQyh7sKgnAYarVTw-6" target="wSawmQyh7sKgnAYarVTw-4">
          <mxGeometry relative="1" as="geometry">
            <Array as="points">
              <mxPoint x="1377" y="2061" />
            </Array>
          </mxGeometry>
        </mxCell>
        <mxCell id="wSawmQyh7sKgnAYarVTw-44" value="12. notificacoesEnviadas" style="verticalAlign=bottom;edgeStyle=elbowEdgeStyle;elbow=vertical;curved=0;rounded=0;dashed=1;dashPattern=2 3;endArrow=block;" edge="1" parent="1" source="wSawmQyh7sKgnAYarVTw-4" target="wSawmQyh7sKgnAYarVTw-3">
          <mxGeometry relative="1" as="geometry">
            <Array as="points">
              <mxPoint x="812" y="2115" />
            </Array>
          </mxGeometry>
        </mxCell>
        <mxCell id="wSawmQyh7sKgnAYarVTw-45" value="1. acessarNotificacoes()" style="verticalAlign=bottom;edgeStyle=elbowEdgeStyle;elbow=vertical;curved=0;rounded=0;endArrow=block;" edge="1" parent="1" source="wSawmQyh7sKgnAYarVTw-8" target="wSawmQyh7sKgnAYarVTw-4">
          <mxGeometry relative="1" as="geometry">
            <Array as="points">
              <mxPoint x="1625" y="2218" />
            </Array>
          </mxGeometry>
        </mxCell>
        <mxCell id="wSawmQyh7sKgnAYarVTw-46" value="2. buscarNotificacoesUsuario(idUsuario)" style="verticalAlign=bottom;edgeStyle=elbowEdgeStyle;elbow=vertical;curved=0;rounded=0;endArrow=block;" edge="1" parent="1" source="wSawmQyh7sKgnAYarVTw-4" target="wSawmQyh7sKgnAYarVTw-6">
          <mxGeometry relative="1" as="geometry">
            <Array as="points">
              <mxPoint x="1374" y="2272" />
            </Array>
          </mxGeometry>
        </mxCell>
        <mxCell id="wSawmQyh7sKgnAYarVTw-47" value="3. listaNotificacoes" style="verticalAlign=bottom;edgeStyle=elbowEdgeStyle;elbow=vertical;curved=0;rounded=0;dashed=1;dashPattern=2 3;endArrow=block;" edge="1" parent="1" source="wSawmQyh7sKgnAYarVTw-6" target="wSawmQyh7sKgnAYarVTw-4">
          <mxGeometry relative="1" as="geometry">
            <Array as="points">
              <mxPoint x="1377" y="2326" />
            </Array>
          </mxGeometry>
        </mxCell>
        <mxCell id="wSawmQyh7sKgnAYarVTw-48" value="4. Exibe notificações" style="verticalAlign=bottom;edgeStyle=elbowEdgeStyle;elbow=vertical;curved=0;rounded=0;dashed=1;dashPattern=2 3;endArrow=block;" edge="1" parent="1" source="wSawmQyh7sKgnAYarVTw-4" target="wSawmQyh7sKgnAYarVTw-8">
          <mxGeometry relative="1" as="geometry">
            <Array as="points">
              <mxPoint x="1622" y="2380" />
            </Array>
          </mxGeometry>
        </mxCell>
        <mxCell id="wSawmQyh7sKgnAYarVTw-49" value="5. marcarComoLida(idNotificacao)" style="verticalAlign=bottom;edgeStyle=elbowEdgeStyle;elbow=vertical;curved=0;rounded=0;endArrow=block;" edge="1" parent="1" source="wSawmQyh7sKgnAYarVTw-8" target="wSawmQyh7sKgnAYarVTw-4">
          <mxGeometry relative="1" as="geometry">
            <Array as="points">
              <mxPoint x="1625" y="2434" />
            </Array>
          </mxGeometry>
        </mxCell>
        <mxCell id="wSawmQyh7sKgnAYarVTw-50" value="6. atualizarStatusNotificacao(idNotificacao, &quot;LIDA&quot;)" style="verticalAlign=bottom;edgeStyle=elbowEdgeStyle;elbow=vertical;curved=0;rounded=0;endArrow=block;" edge="1" parent="1" source="wSawmQyh7sKgnAYarVTw-4" target="wSawmQyh7sKgnAYarVTw-6">
          <mxGeometry relative="1" as="geometry">
            <Array as="points">
              <mxPoint x="1374" y="2488" />
            </Array>
          </mxGeometry>
        </mxCell>
        <mxCell id="wSawmQyh7sKgnAYarVTw-51" value="7. statusAtualizado" style="verticalAlign=bottom;edgeStyle=elbowEdgeStyle;elbow=vertical;curved=0;rounded=0;dashed=1;dashPattern=2 3;endArrow=block;" edge="1" parent="1" source="wSawmQyh7sKgnAYarVTw-6" target="wSawmQyh7sKgnAYarVTw-4">
          <mxGeometry relative="1" as="geometry">
            <Array as="points">
              <mxPoint x="1377" y="2542" />
            </Array>
          </mxGeometry>
        </mxCell>
        <mxCell id="wSawmQyh7sKgnAYarVTw-52" value="8. Confirma leitura" style="verticalAlign=bottom;edgeStyle=elbowEdgeStyle;elbow=vertical;curved=0;rounded=0;dashed=1;dashPattern=2 3;endArrow=block;" edge="1" parent="1" source="wSawmQyh7sKgnAYarVTw-4" target="wSawmQyh7sKgnAYarVTw-8">
          <mxGeometry relative="1" as="geometry">
            <Array as="points">
              <mxPoint x="1622" y="2596" />
            </Array>
          </mxGeometry>
        </mxCell>
        <mxCell id="wSawmQyh7sKgnAYarVTw-53" value="Cenário 1: Notificação de Nova Solicitação" style="fillColor=#ffff88;strokeColor=#9E916F;" vertex="1" parent="1">
          <mxGeometry x="99" y="95" width="2180" height="49" as="geometry" />
        </mxCell>
        <mxCell id="wSawmQyh7sKgnAYarVTw-54" value="Cenário 2: Notificação de Aprovação/Rejeição" style="fillColor=#ffff88;strokeColor=#9E916F;" vertex="1" parent="1">
          <mxGeometry x="356" y="633" width="1923" height="49" as="geometry" />
        </mxCell>
        <mxCell id="wSawmQyh7sKgnAYarVTw-55" value="Cenário 3: Notificação de Conclusão de Viagem" style="fillColor=#ffff88;strokeColor=#9E916F;" vertex="1" parent="1">
          <mxGeometry x="602" y="1438" width="1677" height="49" as="geometry" />
        </mxCell>
        <mxCell id="wSawmQyh7sKgnAYarVTw-56" value="Cenário 4: Usuário visualiza notificações" style="fillColor=#ffff88;strokeColor=#9E916F;" vertex="1" parent="1">
          <mxGeometry x="949" y="2135" width="1330" height="49" as="geometry" />
        </mxCell>
      </root>
    </mxGraphModel>
  </diagram>
</mxfile>
